<?xml version="1.0" encoding="UTF-8"?>
<svg xmlns="http://www.w3.org/2000/svg" viewBox="0 0 500 500">
  <defs>
    <style>
      .cls-1 {
        fill: #ffc373;
      }

      .cls-2 {
        fill: #ff6e00;
      }

      .cls-3 {
        fill: #8b8b8b;
      }

      .cls-4 {
        fill: #f32200;
      }

      .cls-5 {
        fill: #4c4c4c;
      }

      .cls-6 {
        fill: #d69138;
      }

      .cls-7 {
        fill: #010101;
      }
    </style>
  </defs>
  <g id="Background">
    <rect class="cls-7" width="500" height="500"/>
  </g>
  <g id="Object">
    <g>
      <path class="cls-2" d="M482.27,250.34c0-14.26-5.55-27.66-15.63-37.72l-58.42-58.42-2.41-22.46c-.89-8.4-3.93-16.46-9.1-23.74l-3.55-4.39c-9.34-10.21-22.66-16.08-36.54-16.08h-4.56l-13.57-3.06-52.71-52.71c-10.07-10.07-23.47-15.61-37.72-15.61s-27.66,5.54-37.72,15.61l-19.4,19.4-41.5-9.37c-4.85-1.09-9.84-.24-14.06,2.42-4.21,2.66-7.13,6.8-8.23,11.66l-.51,2.25c-2.27,10.02,4.05,20.02,14.08,22.29l17.12,3.86-3.27,3.27h-15.07c-25.34,0-46.49,19.01-49.19,44.2l-2.41,22.46-58.42,58.43c-17.08,17.07-20.47,43.29-8.79,63.91-1.01,3.38-1.54,6.92-1.54,10.44v117.49c0,19.85,16.15,35.99,35.99,35.99h126.74l28.46,28.46c10.07,10.06,23.47,15.6,37.72,15.6s27.67-5.54,37.72-15.6l28.46-28.46h126.74c19.85,0,35.99-16.14,35.99-35.99v-117.49c0-3.58-.51-7.09-1.54-10.47,4.49-7.96,6.84-16.92,6.84-26.16ZM382.96,118.38c.97,1.37,1.83,2.83,2.58,4.34-.76-1.55-1.65-3.02-2.64-4.41l.06.08ZM380.08,114.84l.26.32c-4.01-4.35-9.2-7.58-15.04-9.2,5.74,1.57,10.93,4.68,14.78,8.88ZM144.52,63.58c-.64-.14-1.2-1.02-1.05-1.67l.51-2.25c.14-.63,1-1.21,1.66-1.04l30.88,6.97-4.25,4.25-27.74-6.26Z"/>
      <path class="cls-7" d="M473.65,250.34c0-11.95-4.66-23.18-13.1-31.62L279.69,37.86c-8.44-8.44-19.67-13.09-31.63-13.09s-23.19,4.65-31.63,13.09L35.58,218.72c-15.49,15.49-17.36,39.33-5.33,56.84-1.62,3.55-2.47,7.44-2.47,11.41v117.49c0,15.09,12.28,27.37,27.37,27.37h130.31l30.99,30.99c8.43,8.43,19.66,13.08,31.63,13.08s23.2-4.65,31.63-13.08l30.99-30.99h130.31c15.09,0,27.37-12.28,27.37-27.37v-117.49c0-3.97-.86-7.87-2.48-11.42,5.04-7.38,7.77-16.13,7.77-25.21ZM59.97,243.11L240.82,62.25c3.86-3.84,10.63-3.84,14.48,0l180.86,180.86c1.94,1.94,3,4.51,3,7.23s-1.06,5.31-3,7.24l-19.27,19.27H79.24l-19.27-19.27c-3.99-3.99-3.99-10.48,0-14.48Z"/>
      <path class="cls-3" d="M448.35,230.91L267.49,50.05c-10.73-10.73-28.13-10.73-38.86,0L47.77,230.91c-10.73,10.73-10.73,28.13,0,38.86l7.43,7.43h385.72l7.43-7.43c10.73-10.73,10.73-28.13,0-38.86Z"/>
      <g>
        <polygon class="cls-2" points="343.06 125.62 248.06 268.52 356.6 139.16 343.06 125.62"/>
        <polygon class="cls-2" points="294.45 77.01 248.06 268.52 311.54 94.1 294.45 77.01"/>
        <path class="cls-2" d="M228.63,50.05l-4.5,4.5,23.93,213.96V42.01c-7.03,0-14.06,2.68-19.43,8.05Z"/>
        <polygon class="cls-2" points="385.04 167.6 248.06 268.52 398.88 181.44 385.04 167.6"/>
        <path class="cls-2" d="M448.35,230.91l-16.45-16.45-183.85,54.05,201.92-35.6c-.55-.66-1.01-1.38-1.63-2Z"/>
        <polygon class="cls-2" points="169.19 109.5 248.06 268.52 184.58 94.1 169.19 109.5"/>
        <path class="cls-2" d="M40.21,255.37l207.86,13.14-201.92-35.6c-5.33,6.44-7.38,14.67-5.93,22.46Z"/>
        <polygon class="cls-2" points="126.25 152.44 248.06 268.52 139.52 139.16 126.25 152.44"/>
        <polygon class="cls-2" points="82.55 196.14 248.06 268.52 97.25 181.44 82.55 196.14"/>
        <polygon class="cls-1" points="97.25 181.44 248.06 268.52 111.09 167.6 97.25 181.44"/>
        <polygon class="cls-1" points="184.58 94.1 248.06 268.52 201.67 77.01 184.58 94.1"/>
        <path class="cls-1" d="M267.49,50.05c-5.37-5.37-12.4-8.05-19.43-8.05v226.51l23.93-213.96-4.5-4.5Z"/>
        <path class="cls-1" d="M47.77,230.91c-.62.62-1.08,1.33-1.63,2l201.92,35.6-183.84-54.05-16.45,16.45Z"/>
        <polygon class="cls-1" points="139.52 139.16 248.06 268.52 153.06 125.62 139.52 139.16"/>
        <polygon class="cls-1" points="398.88 181.44 248.06 268.52 413.58 196.14 398.88 181.44"/>
        <polygon class="cls-1" points="311.54 94.1 248.06 268.52 326.94 109.5 311.54 94.1"/>
        <path class="cls-1" d="M449.98,232.91l-201.92,35.6,207.86-13.14c1.44-7.8-.6-16.02-5.94-22.46Z"/>
        <polygon class="cls-1" points="356.6 139.16 248.06 268.52 369.88 152.44 356.6 139.16"/>
      </g>
      <path class="cls-7" d="M397.24,132.66c-.77-7.17-3.34-13.73-7.24-19.25l-3.2-3.97c-7.49-8.2-18.27-13.27-30.17-13.27h-5.52l-203.57-45.96c-5.39-1.22-10.75,2.16-11.97,7.56l-.51,2.26c-1.22,5.4,2.16,10.76,7.56,11.98l107.06,24.17h-110.17c-20.88,0-38.39,15.74-40.62,36.5l-11.18,104.31c-.86,8,1.79,15.8,7.18,21.6v5.25c0,8.33,6.76,15.09,15.09,15.09h276c8.33,0,15.09-6.75,15.09-15.09v-5.07c5.52-5.81,8.22-13.68,7.34-21.79l-11.18-104.31ZM387.23,248.08l-3.4,2.59v11H112.14v-11.07l-3.32-2.59c-2.86-2.22-4.34-5.67-3.96-9.2l11.18-104.31c1.29-12.03,11.38-21.09,23.47-21.09h217.13c12.09,0,22.18,9.06,23.47,21.09l11.18,104.31c.39,3.59-1.12,7.06-4.04,9.27Z"/>
      <g>
        <path class="cls-4" d="M381.04,258.81h0c1.03,0,1.87.84,1.87,1.87s-.84,1.87-1.87,1.87H120.94c-1.03,0-1.87-.84-1.87-1.87s.84-1.87,1.87-1.87h-5.85c-4.38,0-8.39-1.49-11.57-3.96v14.68c0,.41.34.75.75.75h287.44c.41,0,.75-.34.75-.75v-6.87s0,0,0,0v-7.69c-3.16,2.4-7.1,3.84-11.42,3.84Z"/>
        <path class="cls-7" d="M120.94,258.81c-1.03,0-1.87.84-1.87,1.87s.84,1.87,1.87,1.87h260.09c1.03,0,1.87-.84,1.87-1.87s-.84-1.87-1.87-1.87H120.94Z"/>
        <polygon class="cls-2" points="210.29 201.73 246.23 201.73 248.06 198.56 248.06 189.35 217.44 189.35 210.29 201.73"/>
        <path class="cls-2" d="M120.94,258.81h127.12s-34.79,0-34.79,0l9.94-17.21h-35.94l-9.94,17.21h-21.87l9.94-17.21h-36.92c-7.18,0-12.6-6.06-11.26-12.61l2.43-18.6c1.02-5.02,5.75-8.66,11.26-8.66h57.51l7.15-12.38h-61.31c-5.32,0-9.46-4.64-8.85-9.93l4.43-38.7c1.04-9.12,8.76-16,17.94-16h85.11l11.51-19.93h-104.9c-16.47,0-30.29,12.42-32.04,28.79l-11.18,104.3c-.73,6.82,2.25,13.1,7.23,16.97,3.19,2.47,7.19,3.96,11.57,3.96h5.85Z"/>
        <polygon class="cls-4" points="253.38 189.35 248.06 189.35 248.06 198.56 253.38 189.35"/>
        <polygon class="cls-4" points="290.69 124.72 302.2 104.79 266.27 104.79 254.76 124.72 290.69 124.72"/>
        <path class="cls-4" d="M399.84,237.88l-11.18-104.3c-1.75-16.37-15.57-28.79-32.04-28.79,1.54,0,3.02.21,4.5.42l-11.3,19.58c8.51.7,15.47,7.31,16.45,15.93l4.43,38.7c.61,5.29-3.53,9.93-8.85,9.93h-49.3l-7.15,12.38h59.8c5.51,0,10.24,3.63,11.26,8.66l2.43,18.6c1.34,6.55-4.08,12.61-11.26,12.61h-85.24l-9.94,17.21h-24.39s132.97,0,132.97,0h0c4.31,0,8.26-1.44,11.42-3.84,5.08-3.86,8.13-10.2,7.39-17.09Z"/>
        <polygon class="cls-1" points="223.22 241.6 213.28 258.81 248.06 258.81 272.46 258.81 282.4 241.6 248.06 241.6 223.22 241.6"/>
        <path class="cls-1" d="M348.35,124.72c.5,0,.99.03,1.48.07l11.3-19.58c-1.48-.21-2.97-.42-4.5-.42,0,0,0,0,0,0h-6.48l-194-43.8c-.43-2.48-2.58-4.68-5.63-5.29-3.79-.76-7.37,1.19-8.01,4.36-.64,3.17,1.91,6.35,5.7,7.11,2.32.47,4.48-.17,6.02-1.4l172.81,39.02h-24.83s-11.51,19.93-11.51,19.93h57.66Z"/>
        <polygon class="cls-1" points="248.06 198.56 246.23 201.73 248.06 201.73 305.41 201.73 312.56 189.35 253.38 189.35 248.06 198.56"/>
        <polygon class="cls-1" points="217.44 189.35 195.57 189.35 188.42 201.73 210.29 201.73 217.44 189.35"/>
        <polygon class="cls-1" points="155.47 258.81 177.34 258.81 187.28 241.6 165.41 241.6 155.47 258.81"/>
        <polygon class="cls-1" points="248.06 124.72 254.76 124.72 266.27 104.79 266.27 104.79 244.4 104.79 244.4 104.79 232.89 124.72 248.06 124.72"/>
        <path class="cls-5" d="M248.06,232.12h-95.4v-6.12h95.4v-5.62h-95.4v-6.12h95.4v-6.04h-.53v-3.58h.53v-2.91h-117.15c-5.51,0-10.24,3.63-11.26,8.66l-2.43,18.6c-1.34,6.55,4.08,12.61,11.26,12.61h119.58v-9.48ZM243.57,204.64v5.66h-1.01v-5.66h1.01ZM237.57,204.64h1.01v3.58h-1.01v-3.58ZM232.6,204.64h1.01v5.66h-1.01v-5.66ZM227.62,204.64h1.01v3.58h-1.01v-3.58ZM222.64,204.64h1.01v5.66h-1.01v-5.66ZM217.66,204.64h1.01v3.58h-1.01v-3.58ZM212.68,204.64h1.01v5.66h-1.01v-5.66ZM208.72,204.64v3.58h-1.01v-3.58h1.01ZM202.73,204.64h1.01v5.66h-1.01v-5.66ZM197.75,204.64h1.01v3.58h-1.01v-3.58ZM192.77,204.64h1.01v5.66h-1.01v-5.66ZM188.8,208.22h-1.01v-3.58h1.01v3.58ZM182.81,204.64h1.01v5.66h-1.01v-5.66ZM177.84,204.64h1.01v3.58h-1.01v-3.58ZM172.86,204.64h1.01v5.66h-1.01v-5.66ZM167.88,204.64h1.01v3.58h-1.01v-3.58ZM162.9,204.64h1.01v5.66h-1.01v-5.66ZM157.92,204.64h1.01v3.58h-1.01v-3.58ZM152.95,204.64h1.01v5.66h-1.01v-5.66ZM136.05,234.54c-7.11,0-12.87-5.76-12.87-12.87s5.76-12.87,12.87-12.87,12.87,5.76,12.87,12.87-5.76,12.87-12.87,12.87Z"/>
        <path class="cls-4" d="M136.05,208.79c-7.11,0-12.87,5.76-12.87,12.87s5.76,12.87,12.87,12.87,12.87-5.76,12.87-12.87-5.76-12.87-12.87-12.87ZM136.05,229.06c-4.09,0-7.4-3.31-7.4-7.4s3.31-7.4,7.4-7.4,7.4,3.31,7.4,7.4-3.31,7.4-7.4,7.4Z"/>
        <circle class="cls-1" cx="136.05" cy="221.66" r="7.4"/>
        <path class="cls-5" d="M248.06,189.35v-3.73h0c-.18,0-.36-.02-.53-.06v.06h-115.26c-1.4,0-2.54-1.14-2.54-2.54s1.14-2.54,2.54-2.54h115.26v.06c.17-.04.35-.06.53-.06h0v-5.33h0c-.18,0-.36-.02-.53-.06v.06h-115.26c-1.4,0-2.54-1.14-2.54-2.54s1.14-2.54,2.54-2.54h115.26v.06c.17-.04.35-.06.53-.06h0v-5.33h0c-.18,0-.36-.02-.53-.06v.06h-113.9c-1.4,0-2.54-1.14-2.54-2.54s1.14-2.54,2.54-2.54h113.9v.06c.17-.04.35-.06.53-.06h0v-5.34h0c-.18,0-.36-.02-.53-.06v.06h-111.48c-1.4,0-2.54-1.14-2.54-2.54s1.14-2.54,2.54-2.54h111.48v.06c.17-.04.35-.06.53-.06h0v-5.33h0c-.18,0-.36-.02-.53-.06v.06h-109.37c-1.4,0-2.54-1.14-2.54-2.54s1.14-2.54,2.54-2.54h109.37v.06c.17-.04.35-.06.53-.06h0v-5.33h0c-.18,0-.36-.02-.53-.06v.06h-102.12c-1.4,0-2.54-1.14-2.54-2.54s1.14-2.54,2.54-2.54h102.12v.06c.17-.04.35-.06.53-.06h0v-3.73h-100.29c-9.18,0-16.89,6.88-17.94,16l-4.43,38.7c-.61,5.29,3.53,9.93,8.85,9.93h113.8Z"/>
        <rect class="cls-3" x="195.78" y="214.26" width="52.28" height="6.12"/>
        <rect class="cls-3" x="152.66" y="214.26" width="35.67" height="6.12"/>
        <rect class="cls-3" x="195.78" y="226" width="52.28" height="6.12"/>
        <rect class="cls-3" x="152.66" y="226" width="35.67" height="6.12"/>
        <path class="cls-7" d="M248.06,204.64h.48v3.58h-.48v6.04h95.4v6.12h-95.4v5.62h95.4v6.12h-95.4v9.48h119.58c7.18,0,12.6-6.06,11.26-12.61l-2.43-18.6c-1.02-5.02-5.75-8.66-11.26-8.66h-117.15v2.91ZM359.54,208.79c7.11,0,12.87,5.76,12.87,12.87s-5.76,12.87-12.87,12.87-12.87-5.76-12.87-12.87,5.76-12.87,12.87-12.87ZM342.12,204.64h1.01v5.66h-1.01v-5.66ZM337.14,204.64h1.01v3.58h-1.01v-3.58ZM332.16,204.64h1.01v5.66h-1.01v-5.66ZM327.18,204.64h1.01v3.58h-1.01v-3.58ZM322.2,204.64h1.01v5.66h-1.01v-5.66ZM317.23,204.64h1.01v3.58h-1.01v-3.58ZM312.25,204.64h1.01v5.66h-1.01v-5.66ZM307.27,204.64h1.01v3.58h-1.01v-3.58ZM303.3,204.64v5.66h-1.01v-5.66h1.01ZM297.31,204.64h1.01v3.58h-1.01v-3.58ZM292.33,204.64h1.01v5.66h-1.01v-5.66ZM287.36,204.64h1.01v3.58h-1.01v-3.58ZM282.38,204.64h1.01v5.66h-1.01v-5.66ZM277.4,204.64h1.01v3.58h-1.01v-3.58ZM272.42,204.64h1.01v5.66h-1.01v-5.66ZM267.44,204.64h1.01v3.58h-1.01v-3.58ZM262.47,204.64h1.01v5.66h-1.01v-5.66ZM257.49,204.64h1.01v3.58h-1.01v-3.58ZM252.51,204.64h1.01v5.66h-1.01v-5.66Z"/>
        <path class="cls-7" d="M290.69,124.72h-42.63v3.73h102.65c1.41,0,2.54,1.14,2.54,2.54s-1.14,2.54-2.54,2.54h-102.65v5.33h109.9c1.4,0,2.54,1.14,2.54,2.54s-1.14,2.54-2.54,2.54h-109.9v5.33h112.02c1.41,0,2.54,1.14,2.54,2.54s-1.14,2.54-2.54,2.54h-112.02v5.34h114.43c1.4,0,2.54,1.14,2.54,2.54s-1.14,2.54-2.54,2.54h-114.43v5.33h115.79c1.41,0,2.54,1.14,2.54,2.54s-1.14,2.54-2.54,2.54h-115.79v5.33h115.79c1.41,0,2.54,1.14,2.54,2.54s-1.14,2.54-2.54,2.54h-115.79v3.73h113.8c5.32,0,9.46-4.64,8.85-9.93l-4.43-38.7c-.99-8.62-7.94-15.24-16.45-15.93-.49-.04-.98-.07-1.48-.07h-57.66Z"/>
        <rect class="cls-5" x="248.06" y="214.26" width="95.4" height="6.12"/>
        <rect class="cls-5" x="248.06" y="226" width="95.4" height="6.12"/>
        <path class="cls-6" d="M247.53,138.92v4.97c.17.04.35.06.53.06h109.9c1.4,0,2.54-1.14,2.54-2.54s-1.14-2.54-2.54-2.54h-109.9c-.18,0-.36.02-.53.06Z"/>
        <path class="cls-6" d="M247.53,180.59v4.97c.17.04.35.06.53.06h115.79c1.41,0,2.54-1.14,2.54-2.54s-1.14-2.54-2.54-2.54h-115.79c-.18,0-.36.02-.53.06Z"/>
        <path class="cls-6" d="M247.53,170.18v4.97c.17.04.35.06.53.06h115.79c1.41,0,2.54-1.14,2.54-2.54s-1.14-2.54-2.54-2.54h-115.79c-.18,0-.36.02-.53.06Z"/>
        <path class="cls-6" d="M247.53,159.76v4.97c.17.04.35.06.53.06h114.43c1.4,0,2.54-1.14,2.54-2.54s-1.14-2.54-2.54-2.54h-114.43c-.18,0-.36.02-.53.06Z"/>
        <path class="cls-6" d="M247.53,149.34v4.97c.17.04.35.06.53.06h112.02c1.41,0,2.54-1.14,2.54-2.54s-1.14-2.54-2.54-2.54h-112.02c-.18,0-.36.02-.53.06Z"/>
        <path class="cls-6" d="M247.53,128.51v4.97c.17.04.35.06.53.06h102.65c1.41,0,2.54-1.14,2.54-2.54s-1.14-2.54-2.54-2.54h-102.65c-.18,0-.36.02-.53.06Z"/>
        <path class="cls-4" d="M359.54,234.54c7.11,0,12.87-5.76,12.87-12.87s-5.76-12.87-12.87-12.87-12.87,5.76-12.87,12.87,5.76,12.87,12.87,12.87ZM359.54,214.26c4.09,0,7.4,3.31,7.4,7.4s-3.31,7.4-7.4,7.4-7.4-3.31-7.4-7.4,3.31-7.4,7.4-7.4Z"/>
        <circle class="cls-1" cx="359.54" cy="221.66" r="7.4"/>
        <rect class="cls-1" x="188.33" y="214.26" width="7.45" height="6.12"/>
        <rect class="cls-1" x="188.33" y="226" width="7.45" height="6.12"/>
        <rect class="cls-1" x="177.84" y="204.64" width="1.01" height="3.58"/>
        <rect class="cls-1" x="162.9" y="204.64" width="1.01" height="5.66"/>
        <rect class="cls-1" x="167.88" y="204.64" width="1.01" height="3.58"/>
        <rect class="cls-1" x="172.86" y="204.64" width="1.01" height="5.66"/>
        <rect class="cls-1" x="237.57" y="204.64" width="1.01" height="3.58"/>
        <rect class="cls-1" x="157.92" y="204.64" width="1.01" height="3.58"/>
        <rect class="cls-1" x="212.68" y="204.64" width="1.01" height="5.66"/>
        <rect class="cls-1" x="152.95" y="204.64" width="1.01" height="5.66"/>
        <rect class="cls-1" x="217.66" y="204.64" width="1.01" height="3.58"/>
        <rect class="cls-1" x="207.7" y="204.64" width="1.01" height="3.58"/>
        <rect class="cls-1" x="232.6" y="204.64" width="1.01" height="5.66"/>
        <rect class="cls-1" x="227.62" y="204.64" width="1.01" height="3.58"/>
        <rect class="cls-1" x="222.64" y="204.64" width="1.01" height="5.66"/>
        <rect class="cls-1" x="242.55" y="204.64" width="1.01" height="5.66"/>
        <polygon class="cls-1" points="247.53 208.22 248.06 208.22 248.54 208.22 248.54 204.64 248.06 204.64 247.53 204.64 247.53 208.22"/>
        <rect class="cls-1" x="187.79" y="204.64" width="1.01" height="3.58"/>
        <rect class="cls-1" x="197.75" y="204.64" width="1.01" height="3.58"/>
        <rect class="cls-1" x="202.73" y="204.64" width="1.01" height="5.66"/>
        <rect class="cls-1" x="192.77" y="204.64" width="1.01" height="5.66"/>
        <rect class="cls-1" x="182.81" y="204.64" width="1.01" height="5.66"/>
        <rect class="cls-1" x="307.27" y="204.64" width="1.01" height="3.58"/>
        <rect class="cls-1" x="317.23" y="204.64" width="1.01" height="3.58"/>
        <rect class="cls-1" x="312.25" y="204.64" width="1.01" height="5.66"/>
        <rect class="cls-1" x="302.29" y="204.64" width="1.01" height="5.66"/>
        <rect class="cls-1" x="342.12" y="204.64" width="1.01" height="5.66"/>
        <rect class="cls-1" x="332.16" y="204.64" width="1.01" height="5.66"/>
        <rect class="cls-1" x="337.14" y="204.64" width="1.01" height="3.58"/>
        <rect class="cls-1" x="322.2" y="204.64" width="1.01" height="5.66"/>
        <rect class="cls-1" x="327.18" y="204.64" width="1.01" height="3.58"/>
        <rect class="cls-1" x="287.36" y="204.64" width="1.01" height="3.58"/>
        <rect class="cls-1" x="297.31" y="204.64" width="1.01" height="3.58"/>
        <rect class="cls-1" x="262.47" y="204.64" width="1.01" height="5.66"/>
        <rect class="cls-1" x="272.42" y="204.64" width="1.01" height="5.66"/>
        <rect class="cls-1" x="292.33" y="204.64" width="1.01" height="5.66"/>
        <rect class="cls-1" x="277.4" y="204.64" width="1.01" height="3.58"/>
        <rect class="cls-1" x="267.44" y="204.64" width="1.01" height="3.58"/>
        <rect class="cls-1" x="282.38" y="204.64" width="1.01" height="5.66"/>
        <rect class="cls-1" x="252.51" y="204.64" width="1.01" height="5.66"/>
        <rect class="cls-1" x="257.49" y="204.64" width="1.01" height="3.58"/>
        <path class="cls-1" d="M247.53,149.28h-111.48c-1.4,0-2.54,1.14-2.54,2.54s1.14,2.54,2.54,2.54h111.48v-5.08Z"/>
        <path class="cls-1" d="M247.53,128.45h-102.12c-1.4,0-2.54,1.14-2.54,2.54s1.14,2.54,2.54,2.54h102.12v-5.08Z"/>
        <path class="cls-1" d="M247.53,138.86h-109.37c-1.4,0-2.54,1.14-2.54,2.54s1.14,2.54,2.54,2.54h109.37v-5.08Z"/>
        <path class="cls-1" d="M247.53,180.54h-115.26c-1.4,0-2.54,1.14-2.54,2.54s1.14,2.54,2.54,2.54h115.26v-5.08Z"/>
        <path class="cls-1" d="M247.53,159.7h-113.9c-1.4,0-2.54,1.14-2.54,2.54s1.14,2.54,2.54,2.54h113.9v-5.08Z"/>
        <path class="cls-1" d="M247.53,170.12h-115.26c-1.4,0-2.54,1.14-2.54,2.54s1.14,2.54,2.54,2.54h115.26v-5.08Z"/>
      </g>
      <path class="cls-1" d="M376.02,172.66c-10.99,3.03-13.45,5.49-16.48,16.48-3.03-10.99-5.49-13.45-16.48-16.48,10.99-3.03,13.45-5.49,16.48-16.48,3.03,10.99,5.49,13.45,16.48,16.48Z"/>
      <path class="cls-1" d="M130.96,192.49c-9.29,2.57-11.37,4.65-13.94,13.94-2.57-9.29-4.65-11.37-13.94-13.94,9.29-2.57,11.37-4.65,13.94-13.94,2.57,9.29,4.65,11.37,13.94,13.94Z"/>
      <path class="cls-1" d="M348.32,154.36c-5.83,1.61-7.14,2.92-8.75,8.75-1.61-5.83-2.92-7.14-8.75-8.75,5.83-1.61,7.14-2.92,8.75-8.75,1.61,5.83,2.92,7.14,8.75,8.75Z"/>
      <path class="cls-1" d="M177.13,104.79c-5.83,1.61-7.14,2.92-8.75,8.75-1.61-5.83-2.92-7.14-8.75-8.75,5.83-1.61,7.14-2.92,8.75-8.75,1.61,5.83,2.92,7.14,8.75,8.75Z"/>
    </g>
  </g>
  <g id="Text_1" data-name="Text 1">
    <g>
      <path class="cls-1" d="M137.6,354.3h-30.58v-18.11h-19.14c-5.25,0-9.29,1.65-12.13,4.94s-4.26,8.03-4.26,14.22,1.42,10.92,4.26,14.22c2.84,3.29,6.88,4.94,12.13,4.94h49.72v33.67h-53.47c-14.47,0-25.62-4.59-33.47-13.77-7.84-9.18-11.77-22.2-11.77-39.06s3.92-30,11.77-39.13c7.84-9.13,19-13.69,33.47-13.69h53.47v51.78Z"/>
      <path class="cls-1" d="M188.51,409.67c-14.47,0-25.62-4.71-33.47-14.14-7.84-9.43-11.77-22.82-11.77-40.18s3.92-30.75,11.77-40.18c7.84-9.43,19-14.14,33.47-14.14h21.97c14.47,0,25.62,4.71,33.47,14.14,7.84,9.43,11.77,22.82,11.77,40.18s-3.92,30.75-11.77,40.18c-7.84,9.43-19,14.14-33.47,14.14h-21.97ZM192.27,376h14.47c5.31,0,9.37-1.77,12.18-5.31,2.81-3.54,4.21-8.65,4.21-15.34s-1.42-11.8-4.26-15.34c-2.84-3.54-6.88-5.31-12.13-5.31h-14.47c-5.25,0-9.29,1.77-12.13,5.31-2.84,3.54-4.26,8.66-4.26,15.34s1.42,11.8,4.26,15.34c2.84,3.54,6.88,5.31,12.13,5.31Z"/>
      <path class="cls-1" d="M262.22,302.52h67.02c9.89,0,17.49,3.32,22.8,9.95,5.31,6.64,7.97,16.14,7.97,28.51,0,10.38-2.29,18.58-6.87,24.62-4.58,6.04-10.84,9.1-18.77,9.2l25.64,33.37h-38.73l-23.8-33.37v-26.04h23.99c4.21,0,6.32-2.59,6.32-7.78s-2.11-7.78-6.32-7.78h-27.74v74.97h-31.5v-105.65Z"/>
      <path class="cls-1" d="M365.77,302.52h88.63v30.68h-58.32v9.58h57.41v24.09h-57.41v.75c0,3.69.61,6.26,1.83,7.71,1.22,1.45,3.42,2.17,6.59,2.17h49.9v30.68h-59.79c-6.96,0-12.54-1.35-16.76-4.04-4.21-2.69-7.28-7.03-9.2-13.02-1.92-5.99-2.88-13.82-2.88-23.5v-65.1Z"/>
    </g>
  </g>
</svg>